<!-- Created with Inkscape (http://www.inkscape.org/) --><svg xmlns:inkscape="http://www.inkscape.org/namespaces/inkscape" xmlns:sodipodi="http://sodipodi.sourceforge.net/DTD/sodipodi-0.dtd" xmlns="http://www.w3.org/2000/svg" xmlns:svg="http://www.w3.org/2000/svg" width="210mm" height="297mm" viewBox="0 0 210 297" version="1.1" id="svg5" xml:space="preserve" inkscape:version="1.2.2 (732a01da63, 2022-12-09)" sodipodi:docname="Jupe.svg"><sodipodi:namedview id="namedview7" pagecolor="#ffffff" bordercolor="#000000" borderopacity="0.25" inkscape:showpageshadow="2" inkscape:pageopacity="0.0" inkscape:pagecheckerboard="0" inkscape:deskcolor="#d1d1d1" inkscape:document-units="mm" showgrid="false" inkscape:zoom="2.9540685" inkscape:cx="342.07061" inkscape:cy="365.25897" inkscape:window-width="1920" inkscape:window-height="1009" inkscape:window-x="-8" inkscape:window-y="-8" inkscape:window-maximized="1" inkscape:current-layer="layer2"/><defs id="defs2"><inkscape:path-effect effect="bspline" id="path-effect7491" is_visible="true" lpeversion="1" weight="33.333333" steps="2" helper_size="0" apply_no_weight="true" apply_with_weight="true" only_selected="false"/></defs><g inkscape:groupmode="layer" id="layer2" inkscape:label="Patron"><path style="opacity:0.54321;fill:none;stroke:#000000;stroke-width:1.5;stroke-linecap:round;stroke-linejoin:round;paint-order:stroke fill markers" d="m 78.3227 126.878 c 0 0 27.5988 -11.1506 27.5988 -11.1506 c 0 0 -6.16253 -13.5622 -6.16253 -13.5622 c 0 0 -26.9654 10.6898 -26.9654 10.6898 c 0 0 5.52905 14.023 5.52905 14.023 z" id="path7489" inkscape:path-effect="#path-effect7491" inkscape:original-d="m 74.415736,121.85181 h 29.766294 l -0.63332,-14.88315 -29.006307,-0.18999 z" sodipodi:nodetypes="ccccc" inkscape:label="rect01"/><path d="M 42.9996 6.97428 L 48.6187 20.882 Q 42.859 19.9735 36.9213 21.294 Q 31.9107 22.2398 27.2748 24.1129 Q 20.7845 26.7351 18.7522 29.7133 Q 16.3453 31.7643 17.8437 35.473 Q 18.9675 38.2546 21.5711 39.3597 Q 23.8001 39.5377 29.7378 38.2173 L 36.9773 37.4494 Q 48.8527 34.8085 55.3616 37.5714 Q 61.8706 40.3342 65.242 48.6789 Q 69.3627 58.8779 65.1201 67.0633 Q 60.5028 74.3214 47.5222 79.5659 Q 41.032 82.1882 35.0942 83.5086 Q 28.2294 85.2037 20.6152 85.0444 L 14.9961 71.1366 Q 22.9849 72.2231 29.2972 71.8298 Q 35.2349 70.5094 40.798 68.2617 Q 46.3611 66.0141 48.3934 63.0359 Q 50.4258 60.0577 49.302 57.2762 Q 47.8035 53.5674 45.5746 53.3895 Q 42.971 52.2843 36.6587 52.6776 L 29.7938 54.3727 Q 18.8455 56.639 12.3366 53.8761 Q 6.7548 50.7386 3.38335 42.3939 Q -0.362721 33.1221 2.95274 25.3113 Q 7.57 18.0532 19.6234 13.1833 Q 25.1865 10.9357 31.1242 9.6152 Q 37.0619 8.29474 42.9996 6.97428 Z" style="stroke:black;fill:#decd87;stroke-width:5"/></g></svg>